#define cogs_width 16
#define cogs_height 16
static char cogs_bits[] = {
  0x00, 0x00, 0x20, 0x00, 0x7C, 0x00, 0xFE, 0x00, 0xEC, 0x00, 0xFC, 0x00, 
  0x7C, 0x0D, 0x78, 0x0F, 0x80, 0x3F, 0x88, 0x1B, 0xBC, 0x3F, 0xBE, 0x0F, 
  0x7C, 0x1A, 0x3C, 0x00, 0x10, 0x00, 0x00, 0x00, };
