#define monitor_width 16
#define monitor_height 16
static char monitor_bits[] = {
  0x00, 0x00, 0x00, 0x00, 0xFE, 0x7F, 0x06, 0x62, 0x02, 0x47, 0x02, 0x46, 
  0x02, 0x67, 0x06, 0x4F, 0x86, 0x4D, 0xFE, 0x7D, 0xE6, 0x60, 0xC2, 0x40, 
  0xA6, 0x61, 0xFC, 0x7F, 0x00, 0x00, 0x00, 0x00, };
