#define network_width 16
#define network_height 16
static char network_bits[] = {
  0x00, 0x00, 0xFE, 0x03, 0x06, 0x06, 0xFA, 0x05, 0xFA, 0x07, 0xFA, 0x04, 
  0xFA, 0x7F, 0x7A, 0x40, 0xA2, 0x5F, 0xBE, 0x5F, 0xA0, 0x5F, 0xA0, 0x5F, 
  0xA0, 0x5F, 0x60, 0x40, 0xC0, 0x7F, 0x00, 0x00, };
