#define wifi_width 16
#define wifi_height 16
static char wifi_bits[] = {
  0x00, 0x00, 0x00, 0x00, 0x00, 0x00, 0x80, 0x00, 0xF0, 0x0F, 0x3C, 0x3C, 
  0xCC, 0x33, 0xF0, 0x0F, 0x30, 0x18, 0xC0, 0x03, 0x60, 0x07, 0x00, 0x00, 
  0x80, 0x01, 0x00, 0x00, 0x00, 0x00, 0x00, 0x00, };
